<svg width="59" height="51" viewBox="0 0 59 51" fill="none" xmlns="http://www.w3.org/2000/svg">
<path d="M12.3824 3.39107C13.4001 3.40309 14.3916 3.99983 15.3793 4.27398C19.9099 5.52238 24.8986 7.35662 28.9742 9.63974C32.1008 11.3912 36.3324 14.0464 34.1197 18.0794C33.774 18.7095 32.7548 20.23 32.692 20.8085C32.4737 22.8176 36.4203 22.2842 37.5746 22.7366C39.1366 23.0136 40.0664 24.1349 41.3396 24.9255C41.8348 25.233 42.6336 25.5022 43.193 25.7565C42.356 26.0727 41.4875 26.3803 40.7286 26.8425C40.0486 27.2567 39.005 28.2547 38.2701 28.4608C36.2027 29.0408 34.9136 28.4414 32.9222 29.6101C32.8301 29.7873 32.7525 29.9734 32.7096 30.1691C32.5332 30.9735 33.4997 32.121 33.9031 32.7782C34.5537 33.8386 34.9225 35.1138 34.6167 36.3532C34.0753 38.5474 31.649 40.0674 29.8452 41.1632C28.123 42.2094 26.2399 43.1811 24.3948 43.9965C22.8688 44.6708 13.4543 48.0754 12.5691 47.8168C12.4967 47.7957 12.4746 47.7767 12.4469 47.703C12.1945 47.0305 12.5383 44.8465 12.8373 44.1161C13.793 41.7812 16.1891 41.8942 18.2793 41.5912C18.6488 41.5376 19.0807 41.5158 19.4259 41.3723L19.4607 41.2623C18.9502 40.7125 15.8523 41.3983 15.1716 40.9717L15.1378 40.823C15.1542 40.7661 15.1942 40.6585 15.2331 40.6156C16.0847 39.6749 16.9539 38.889 18.252 38.7521C19.3489 38.6434 22.1485 38.7167 22.9152 38.2725L22.9288 38.1686C22.3612 37.8217 19.7953 38.0422 18.5479 37.732C19.0981 37.394 19.4236 36.8586 19.925 36.392C21.4137 35.0069 22.6071 35.5872 24.4242 35.3621C24.7461 35.3222 25.383 35.133 25.582 34.866L25.5211 34.7723C25.1016 34.6615 22.7461 34.8249 22.1194 34.8568C22.3502 33.832 22.9569 33.7313 22.8654 32.2418C22.897 31.3993 22.4304 30.7574 21.8476 30.2185C20.0288 28.5368 17.6447 28.6243 15.2975 28.8211C12.2805 29.074 9.34353 30.3213 6.36945 30.7824C5.33797 30.9422 4.62542 27.5434 4.61994 26.7124C4.61424 25.8368 5.28474 26.1171 5.72089 25.7066C5.66759 25.2878 4.76998 25.2621 4.62191 24.944C4.3254 24.3067 5.507 20.7233 5.97823 20.6078C7.31122 20.281 9.6238 21.4907 11.0258 21.7523C11.8121 21.8989 12.5065 22.0669 13.3016 22.1618C15.7119 22.5071 18.7527 23.0139 20.9789 21.7635C23.1177 20.5622 23.3255 18.4638 22.1039 16.4901C22.6689 16.5652 25.1031 16.6544 25.5322 16.3904C25.3138 15.7745 22.4529 16.103 21.7991 15.9859C20.4432 15.7431 19.6047 14.418 18.5445 13.595C18.9111 13.4844 19.2888 13.4144 19.6707 13.3864C20.3115 13.3421 22.5134 13.4457 22.8606 13.1833C22.5297 12.7409 18.7654 12.7071 18.0621 12.6517C17.1987 12.5837 15.0448 11.0989 15.1473 10.2083C15.686 9.69613 19.1128 10.3437 19.3525 9.90686C18.6248 9.13272 15.0054 10.1566 13.5756 8.3912C12.3225 6.84411 12.3407 5.31714 12.3824 3.39107Z" fill="white"/>
<path d="M51.3806 8.17142C51.827 8.23266 51.7968 8.87285 52.0239 9.09356C52.7552 9.80583 53.9076 10.3633 54.5749 11.1354C55.9094 12.6796 56.3362 15.2891 54.5924 16.7313C53.2326 17.8639 51.5964 17.921 49.9075 17.8107C49.6438 18.6675 49.6009 18.5193 48.831 18.8383C48.5568 19.3607 48.3965 20.0016 48.1841 20.5644C46.4419 25.1946 44.842 29.8878 43.2247 34.5637C43.0216 35.151 42.1344 37.5317 42.1964 37.931C42.583 38.3147 45.4401 39.291 46.0952 39.5449C46.0356 41.0502 45.5426 40.8537 44.2649 40.5154C44.1409 40.9517 44.0002 41.3975 43.8687 41.8329C44.1799 42.0682 44.6647 42.3558 45.0062 42.5701C44.9527 43.2719 44.874 43.4789 44.5881 44.0951C44.1159 43.6525 44.0081 43.6258 43.4062 43.4428C42.6944 43.1529 41.265 42.7498 40.4842 42.503C40.0685 43.4676 39.8515 45.2524 38.3783 44.1436C37.9818 43.8452 39.2571 40.858 39.4378 40.3566L41.4977 34.6293C41.7533 33.9131 41.9687 33.141 42.2209 32.4081L45.837 21.8502C46.3551 20.362 47.1665 19.1821 46.8222 17.5306C46.7759 17.3087 46.8207 16.8846 46.8437 16.6461C44.5179 15.4732 42.4368 12.0474 44.8274 9.80175C46.4653 8.26317 48.6644 8.43516 50.7611 8.61635C50.991 8.48916 51.1745 8.33405 51.3806 8.17142ZM49.1671 15.0795C50.2563 15.9161 50.4679 16.5477 51.9128 16.6148C53.6207 16.3708 54.6803 15.1417 54.4019 13.3806C54.2964 12.6916 53.9146 12.0752 53.3451 11.6737C52.3853 10.988 51.2083 11.4862 50.3835 11.19C49.0884 10.7247 49.3816 9.72244 47.577 9.84092C46.5559 10.0597 46.0926 10.217 45.4642 11.1467C44.6133 12.4052 45.1798 14.0694 46.3981 14.8412C47.2127 15.3574 48.2601 15.0676 49.1671 15.0795Z" fill="white"/>
</svg>
